<?xml version="1.0" standalone="no"?>
<!DOCTYPE svg PUBLIC "-//W3C//DTD SVG 20010904//EN"
 "http://www.w3.org/TR/2001/REC-SVG-20010904/DTD/svg10.dtd">
<svg version="1.0" xmlns="http://www.w3.org/2000/svg"
 width="234.000000pt" height="234.000000pt" viewBox="0 0 234.000000 234.000000"
 preserveAspectRatio="xMidYMid meet">
<metadata>
Created by potrace 1.14, written by Peter Selinger 2001-2017
</metadata>
<g transform="translate(0.000000,234.000000) scale(0.100000,-0.100000)"
fill="#000000" stroke="none">
<path d="M1147 2334 c-1 -1 -18 -5 -38 -8 -104 -16 -211 -79 -318 -187 -39
-38 -115 -130 -120 -143 -2 -6 -7 -13 -11 -16 -21 -14 -158 -270 -202 -376
-55 -134 -112 -328 -134 -459 -9 -54 -10 -333 -1 -370 4 -16 9 -39 12 -50 16
-70 83 -224 105 -245 3 -3 14 -18 23 -33 43 -67 115 -141 201 -205 38 -29 75
-52 82 -52 8 0 14 -4 14 -9 0 -5 10 -11 22 -14 29 -8 21 -15 -22 -21 -78 -12
-106 -16 -125 -20 -33 -7 -73 -24 -79 -34 -6 -10 17 -34 38 -39 6 -1 29 -7 51
-12 22 -6 63 -12 90 -15 28 -2 50 -5 50 -6 0 -6 195 -11 395 -10 290 0 390 3
390 12 0 3 7 5 16 4 16 -2 58 3 144 19 19 3 46 13 59 22 21 14 22 16 7 31 -9
9 -63 25 -132 37 l-116 21 41 19 c23 10 41 22 41 27 0 4 6 8 13 8 14 0 57 34
137 108 56 51 160 189 160 211 0 6 5 11 10 11 6 0 10 6 10 13 0 7 10 33 21 57
12 24 22 49 23 54 2 6 8 29 14 51 21 75 25 110 25 220 1 119 -11 237 -29 297
-3 10 -7 28 -9 40 -4 20 -29 113 -39 143 -1 6 -8 22 -14 38 -7 15 -14 39 -16
54 -3 14 -10 31 -16 37 -5 5 -10 16 -10 23 0 21 -83 199 -137 293 -41 71 -95
152 -140 206 -39 49 -68 78 -153 154 -39 35 -148 92 -160 85 -6 -4 -10 -2 -10
3 0 5 -6 10 -12 11 -7 1 -26 3 -43 5 -16 3 -30 5 -30 6 0 3 -76 6 -78 4z"/>
</g>
</svg>
